<svg width="265" height="108" viewBox="0 0 265 108" fill="none" xmlns="http://www.w3.org/2000/svg">
<path d="M33.0606 20.0893L67.2623 0.0780183L67.2019 26.5113L33.0002 46.5227L33.0606 20.0893Z" fill="#00B793"/>
<path d="M33.0606 51.0893L67.2623 31.078L67.2019 57.5113L33.0002 77.5227L33.0606 51.0893Z" fill="#00A69E"/>
<path d="M33.0381 81.1655L67.2399 61.1542L67.1795 87.5875L32.9777 107.599L33.0381 81.1655Z" fill="#0093A5"/>
<path d="M33.0381 81.1655L0.105902 61.0008L0.0455238 87.4342L32.9777 107.599L33.0381 81.1655Z" fill="#0080A5"/>
<path d="M127.112 36.48V28.48H98.312V36.48H112.712V55.424C112.712 60.8 109.704 64.384 104.584 64.384C99.272 64.384 96.072 60.736 96.072 55.296H86.792C86.792 65.856 93.512 72.96 104.072 72.96C115.08 72.96 122.056 65.92 122.056 55.424V36.48H127.112ZM154.884 27.584C142.148 27.584 132.099 37.632 132.099 50.24C132.099 62.848 142.148 72.896 154.884 72.896C167.556 72.896 177.604 62.848 177.604 50.24C177.604 37.632 167.556 27.584 154.884 27.584ZM154.884 64.256C147.14 64.256 141.444 57.92 141.444 50.24C141.444 42.56 147.14 36.224 154.884 36.224C162.564 36.224 168.26 42.56 168.26 50.24C168.26 57.92 162.564 64.256 154.884 64.256ZM199.346 36.48H204.402V28.48H185.073V36.48H190.129V64H185.073V72H204.402V64H199.346V36.48ZM263.076 36.48V28.48H243.876V36.48H248.804V56.384L225.124 28.48H213.796V36.48H218.788V64H213.796V72H232.996V64H228.004V45.376L250.916 72H258.02V36.48H263.076Z" fill="#00A69E"/>
</svg>
